<svg version="1.1" id="Layer_1" xmlns="http://www.w3.org/2000/svg" xmlns:xlink="http://www.w3.org/1999/xlink" x="0px" y="0px"
	 width="100%" viewBox="0 0 1133 1133" enable-background="new 0 0 1133 1133" xml:space="preserve">
<path fill="#000000" opacity="1.000000" stroke="none" 
	d="
M777.000000,1134.000000 
	C518.000000,1134.000000 259.500000,1134.000000 1.000000,1134.000000 
	C1.000000,756.333313 1.000000,378.666656 1.000000,1.000000 
	C378.666656,1.000000 756.333313,1.000000 1134.000000,1.000000 
	C1134.000000,378.666656 1134.000000,756.333313 1134.000000,1134.000000 
	C1015.166687,1134.000000 896.333313,1134.000000 777.000000,1134.000000 
M724.912109,316.582092 
	C740.619141,316.496307 756.326172,316.410522 772.932800,316.583984 
	C785.752625,316.612732 798.572510,316.634277 811.392334,316.673157 
	C818.216248,316.693878 818.824768,317.291046 818.826721,324.105286 
	C818.836243,356.905579 818.831299,389.705841 818.831482,422.506134 
	C818.831543,424.268372 818.831482,426.030579 818.831482,427.866882 
	C827.072021,427.866882 834.653198,427.866882 842.244263,427.866882 
	C842.453003,427.160980 842.708984,426.699188 842.709167,426.237274 
	C842.723389,390.773651 842.990295,355.306885 842.582031,319.847900 
	C842.413391,305.197144 831.149109,293.440979 817.426147,293.005951 
	C802.299377,292.526428 787.143433,292.966827 771.083069,292.797363 
	C755.388733,292.865112 739.694336,292.932861 723.083069,292.790619 
	C698.722046,292.859894 674.360962,292.929138 649.082458,292.790802 
	C623.055054,292.862488 597.027649,292.934204 570.081482,292.804657 
	C543.721130,292.871338 517.360779,292.938019 490.082489,292.798737 
	C463.388336,292.865967 436.694153,292.933197 409.080292,292.803497 
	C388.722015,292.862549 368.363708,292.921570 347.221924,292.771271 
	C337.731140,292.783752 328.230713,292.531311 318.752014,292.876160 
	C307.028473,293.302704 296.987488,301.295746 293.967407,312.674011 
	C292.878296,316.777313 292.756683,321.225616 292.755157,325.516693 
	C292.698303,486.891388 292.707062,648.266113 292.708099,809.640869 
	C292.708099,811.306213 292.689667,812.972412 292.736298,814.636719 
	C293.170471,830.123840 303.663635,841.691284 319.082397,842.551270 
	C330.028412,843.161804 341.041199,842.576172 352.946106,842.683533 
	C373.309540,842.622620 393.672943,842.561707 414.953827,842.673401 
	C421.584167,842.696533 428.214661,842.759094 434.844818,842.735413 
	C453.236267,842.669678 471.627563,842.567993 490.937897,842.662048 
	C515.634583,842.602844 540.331299,842.543701 565.943420,842.675903 
	C573.405273,842.697144 580.867249,842.755676 588.328979,842.732422 
	C607.556580,842.672424 626.784119,842.576172 646.930725,842.680786 
	C673.290527,842.621155 699.650391,842.561523 726.929382,842.688782 
	C742.626953,842.620422 758.324585,842.552063 774.936401,842.686462 
	C787.098450,842.708069 799.260559,842.751953 811.422607,842.746155 
	C831.383545,842.736755 842.748047,831.400452 842.759583,811.466064 
	C842.777893,779.810547 842.767700,748.155090 842.755371,716.499573 
	C842.754700,714.872498 842.621094,713.245361 842.540405,711.414612 
	C834.533875,711.414612 826.830261,711.414612 818.831787,711.414612 
	C818.831787,713.578735 818.831848,715.396179 818.831848,717.213684 
	C818.831970,748.202759 818.833130,779.191772 818.831360,810.180847 
	C818.830933,818.313110 818.314575,818.786377 809.970825,818.823975 
	C797.981018,818.877991 785.991333,818.974060 773.081299,818.859436 
	C757.388428,818.920959 741.695557,818.982483 725.082703,818.849426 
	C698.722839,818.915161 672.362915,818.980896 645.082520,818.854553 
	C618.389160,818.920959 591.695801,818.987366 564.081116,818.865845 
	C539.388977,818.928101 514.696899,818.990356 489.083832,818.860657 
	C464.056915,818.921631 439.030029,818.982544 413.080811,818.860107 
	C392.718323,818.914917 372.355865,818.969666 351.207275,818.832458 
	C342.879211,818.810791 334.551178,818.779663 326.223114,818.770081 
	C316.730835,818.759155 316.682526,818.724670 316.682434,809.377625 
	C316.681366,682.280334 316.681549,555.183105 316.681793,428.085815 
	C316.681854,393.271484 316.672302,358.457184 316.693878,323.642853 
	C316.697754,317.399353 317.373993,316.791687 323.571045,316.712708 
	C331.721252,316.608826 339.871185,316.484650 348.935394,316.576416 
	C354.404114,316.607056 359.873077,316.689178 365.341461,316.658539 
	C380.245239,316.574982 395.148804,316.443787 410.955750,316.560760 
	C430.358978,316.600800 449.762268,316.676575 469.165466,316.662384 
	C476.448608,316.657074 483.731659,316.442627 491.923798,316.557251 
	C509.338928,316.593231 526.754089,316.672028 544.169189,316.647430 
	C553.112488,316.634827 562.055481,316.437744 571.906921,316.570526 
	C588.165283,316.605194 604.423645,316.686310 620.681885,316.657166 
	C630.456909,316.639679 640.231689,316.450348 650.914917,316.579529 
	C664.015442,316.609680 677.116150,316.692902 690.216431,316.653778 
	C701.479431,316.620148 712.742004,316.446869 724.912109,316.582092 
M592.240051,450.679474 
	C572.827637,450.449860 553.415222,450.220215 533.216797,449.785919 
	C513.444824,449.785919 493.672913,449.785919 473.677795,449.785919 
	C473.677795,531.768127 473.677795,613.238220 473.677795,694.771973 
	C488.910858,694.771973 503.792633,694.771973 519.136719,694.771973 
	C519.136719,671.170959 519.136719,647.930298 519.136719,624.009399 
	C524.731384,624.009399 529.867126,624.009399 535.925537,624.186401 
	C547.950439,624.122314 559.975342,624.058228 572.922058,624.178345 
	C577.887451,624.083130 582.877808,624.272156 587.813538,623.838745 
	C602.010254,622.592224 616.040466,620.492981 629.723633,613.955627 
	C641.450989,608.865723 651.447937,601.221375 659.989990,591.928650 
	C686.111206,563.511841 687.435852,502.181549 651.339294,474.039948 
	C644.821838,468.958862 637.212830,465.277954 629.736877,460.291107 
	C628.687622,459.906097 627.664001,459.416351 626.585144,459.152161 
	C615.395630,456.412415 604.197327,453.708954 592.240051,450.679474 
z"/>
<path fill="#977149" opacity="1.000000" stroke="none" 
	d="
M352.024170,842.524414 
	C341.041199,842.576172 330.028412,843.161804 319.082397,842.551270 
	C303.663635,841.691284 293.170471,830.123840 292.736298,814.636719 
	C292.689667,812.972412 292.708099,811.306213 292.708099,809.640869 
	C292.707062,648.266113 292.698303,486.891388 292.755157,325.516693 
	C292.756683,321.225616 292.878296,316.777313 293.967407,312.674011 
	C296.987488,301.295746 307.028473,293.302704 318.752014,292.876160 
	C328.230713,292.531311 337.731140,292.783752 347.609894,293.345825 
	C348.005676,301.403320 348.013458,308.886292 348.021240,316.369232 
	C339.871185,316.484650 331.721252,316.608826 323.571045,316.712708 
	C317.373993,316.791687 316.697754,317.399353 316.693878,323.642853 
	C316.672302,358.457184 316.681854,393.271484 316.681793,428.085815 
	C316.681549,555.183105 316.681366,682.280334 316.682434,809.377625 
	C316.682526,818.724670 316.730835,818.759155 326.223114,818.770081 
	C334.551178,818.779663 342.879211,818.810791 351.598816,819.395508 
	C352.001617,827.480469 352.012878,835.002441 352.024170,842.524414 
z"/>
<path fill="#AF8656" opacity="1.000000" stroke="none" 
	d="
M535.002808,624.009399 
	C529.867126,624.009399 524.731384,624.009399 519.136719,624.009399 
	C519.136719,647.930298 519.136719,671.170959 519.136719,694.771973 
	C503.792633,694.771973 488.910858,694.771973 473.677795,694.771973 
	C473.677795,613.238220 473.677795,531.768127 473.677795,449.785919 
	C493.672913,449.785919 513.444824,449.785919 533.608398,450.357483 
	C534.000671,463.273865 534.001343,475.618652 533.543213,488.055634 
	C528.496643,488.147827 523.908813,488.147827 519.337891,488.147827 
	C519.337891,521.102173 519.337891,553.266541 519.337891,586.074951 
	C524.773743,586.074951 529.888916,586.074951 535.002319,586.538940 
	C535.001343,599.338379 535.002075,611.673889 535.002808,624.009399 
z"/>
<path fill="#C19560" opacity="1.000000" stroke="none" 
	d="
M630.107788,460.950592 
	C637.212830,465.277954 644.821838,468.958862 651.339294,474.039948 
	C687.435852,502.181549 686.111206,563.511841 659.989990,591.928650 
	C651.447937,601.221375 641.450989,608.865723 629.324951,613.558167 
	C628.617554,610.041809 628.071228,606.925049 628.042419,603.803589 
	C627.935791,592.208740 628.064148,580.611633 627.938843,569.017151 
	C627.916748,566.968506 627.103027,564.928467 626.762573,562.534302 
	C628.276978,558.648254 630.035400,555.208191 631.028137,551.559692 
	C634.839355,537.553650 632.987122,524.069580 626.949829,510.764618 
	C627.471741,508.479095 627.953308,506.533417 627.964355,504.585083 
	C628.034363,492.128296 627.903992,479.669464 628.096008,467.215240 
	C628.128357,465.117157 629.405701,463.038330 630.107788,460.950592 
z"/>
<path fill="#D2A569" opacity="1.000000" stroke="none" 
	d="
M772.000244,293.006470 
	C787.143433,292.966827 802.299377,292.526428 817.426147,293.005951 
	C831.149109,293.440979 842.413391,305.197144 842.582031,319.847900 
	C842.990295,355.306885 842.723389,390.773651 842.709167,426.237274 
	C842.708984,426.699188 842.453003,427.160980 842.244263,427.866882 
	C834.653198,427.866882 827.072021,427.866882 818.831482,427.866882 
	C818.831482,426.030579 818.831543,424.268372 818.831482,422.506134 
	C818.831299,389.705841 818.836243,356.905579 818.826721,324.105286 
	C818.824768,317.291046 818.216248,316.693878 811.392334,316.673157 
	C798.572510,316.634277 785.752625,316.612732 772.476562,316.029510 
	C772.013550,307.985504 772.006897,300.496002 772.000244,293.006470 
z"/>
<path fill="#D2A569" opacity="1.000000" stroke="none" 
	d="
M774.001587,819.052185 
	C785.991333,818.974060 797.981018,818.877991 809.970825,818.823975 
	C818.314575,818.786377 818.830933,818.313110 818.831360,810.180847 
	C818.833130,779.191772 818.831970,748.202759 818.831848,717.213684 
	C818.831848,715.396179 818.831787,713.578735 818.831787,711.414612 
	C826.830261,711.414612 834.533875,711.414612 842.540405,711.414612 
	C842.621094,713.245361 842.754700,714.872498 842.755371,716.499573 
	C842.767700,748.155090 842.777893,779.810547 842.759583,811.466064 
	C842.748047,831.400452 831.383545,842.736755 811.422607,842.746155 
	C799.260559,842.751953 787.098450,842.708069 774.476868,842.149658 
	C774.012085,834.092590 774.006836,826.572388 774.001587,819.052185 
z"/>
<path fill="#BC915D" opacity="1.000000" stroke="none" 
	d="
M626.654846,562.884460 
	C627.103027,564.928467 627.916748,566.968506 627.938843,569.017151 
	C628.064148,580.611633 627.935791,592.208740 628.042419,603.803589 
	C628.071228,606.925049 628.617554,610.041809 628.963074,613.579834 
	C616.040466,620.492981 602.010254,622.592224 587.813538,623.838745 
	C582.877808,624.272156 577.887451,624.083130 572.461365,623.617920 
	C572.001709,610.733154 572.002747,598.408752 572.442017,585.994995 
	C574.370850,585.850159 575.862549,585.817566 577.351562,585.735718 
	C596.819214,584.665588 614.844788,580.478455 626.654846,562.884460 
z"/>
<path fill="#B68C5A" opacity="1.000000" stroke="none" 
	d="
M534.002014,487.963440 
	C534.001343,475.618652 534.000671,463.273865 534.001465,450.459839 
	C553.415222,450.220215 572.827637,450.449860 592.619751,451.306396 
	C593.332886,464.623779 593.666321,477.314240 593.571228,490.031372 
	C583.053650,489.434296 572.971863,488.608002 562.873474,488.245148 
	C553.258667,487.899597 543.626526,488.037903 534.002014,487.963440 
z"/>
<path fill="#BC915D" opacity="1.000000" stroke="none" 
	d="
M646.011658,842.494507 
	C626.784119,842.576172 607.556580,842.672424 588.328979,842.732422 
	C580.867249,842.755676 573.405273,842.697144 565.482422,842.145020 
	C565.015076,834.094055 565.008728,826.573914 565.002441,819.053833 
	C591.695801,818.987366 618.389160,818.920959 645.542114,819.416199 
	C646.005066,827.483398 646.008362,834.988953 646.011658,842.494507 
z"/>
<path fill="#AB8254" opacity="1.000000" stroke="none" 
	d="
M410.000000,293.000397 
	C436.694153,292.933197 463.388336,292.865967 490.542084,293.369995 
	C491.006012,301.402008 491.010376,308.862762 491.014740,316.323486 
	C483.731659,316.442627 476.448608,316.657074 469.165466,316.662384 
	C449.762268,316.676575 430.358978,316.600800 410.492889,316.022278 
	C410.020020,307.989319 410.010010,300.494843 410.000000,293.000397 
z"/>
<path fill="#B68C5A" opacity="1.000000" stroke="none" 
	d="
M491.469269,316.440369 
	C491.010376,308.862762 491.006012,301.402008 491.001068,293.472992 
	C517.360779,292.938019 543.721130,292.871338 570.541077,293.373535 
	C571.000000,301.402924 570.999329,308.863495 570.998657,316.324036 
	C562.055481,316.437744 553.112488,316.634827 544.169189,316.647430 
	C526.754089,316.672028 509.338928,316.593231 491.469269,316.440369 
z"/>
<path fill="#C59962" opacity="1.000000" stroke="none" 
	d="
M646.471191,842.587646 
	C646.008362,834.988953 646.005066,827.483398 646.002441,819.512207 
	C672.362915,818.980896 698.722839,818.915161 725.541931,819.412476 
	C726.004150,827.484375 726.007202,834.993103 726.010193,842.501892 
	C699.650391,842.561523 673.290527,842.621155 646.471191,842.587646 
z"/>
<path fill="#BC915D" opacity="1.000000" stroke="none" 
	d="
M571.452759,316.447266 
	C570.999329,308.863495 571.000000,301.402924 571.000488,293.474121 
	C597.027649,292.934204 623.055054,292.862488 649.541260,293.363342 
	C650.002197,301.403290 650.004333,308.870758 650.006531,316.338196 
	C640.231689,316.450348 630.456909,316.639679 620.681885,316.657166 
	C604.423645,316.686310 588.165283,316.605194 571.452759,316.447266 
z"/>
<path fill="#AB8254" opacity="1.000000" stroke="none" 
	d="
M490.018921,842.480469 
	C471.627563,842.567993 453.236267,842.669678 434.844818,842.735413 
	C428.214661,842.759094 421.584167,842.696533 414.489929,842.151123 
	C414.018372,834.100403 414.010742,826.571899 414.003113,819.043457 
	C439.030029,818.982544 464.056915,818.921631 489.544373,819.421753 
	C490.009613,827.482117 490.014252,834.981262 490.018921,842.480469 
z"/>
<path fill="#B68C5A" opacity="1.000000" stroke="none" 
	d="
M490.478394,842.571289 
	C490.014252,834.981262 490.009613,827.482117 490.004852,819.517700 
	C514.696899,818.990356 539.388977,818.928101 564.541748,818.959839 
	C565.008728,826.573914 565.015076,834.094055 565.024658,842.049316 
	C540.331299,842.543701 515.634583,842.602844 490.478394,842.571289 
z"/>
<path fill="#C59962" opacity="1.000000" stroke="none" 
	d="
M650.460693,316.458862 
	C650.004333,308.870758 650.002197,301.403290 650.000000,293.467133 
	C674.360962,292.929138 698.722046,292.859894 723.541504,293.364197 
	C724.001587,301.403595 724.003174,308.869446 724.004761,316.335297 
	C712.742004,316.446869 701.479431,316.620148 690.216431,316.653778 
	C677.116150,316.692902 664.015442,316.609680 650.460693,316.458862 
z"/>
<path fill="#BC915D" opacity="1.000000" stroke="none" 
	d="
M593.999756,490.004700 
	C593.666321,477.314240 593.332886,464.623779 593.000427,451.464355 
	C604.197327,453.708954 615.395630,456.412415 626.585144,459.152161 
	C627.664001,459.416351 628.687622,459.906097 629.922363,460.620850 
	C629.405701,463.038330 628.128357,465.117157 628.096008,467.215240 
	C627.903992,479.669464 628.034363,492.128296 627.964355,504.585083 
	C627.953308,506.533417 627.471741,508.479095 626.672791,510.587036 
	C624.699402,508.942810 623.308228,507.097473 621.814697,505.339081 
	C614.487549,496.712280 604.407227,493.057037 593.999756,490.004700 
z"/>
<path fill="#A37B50" opacity="1.000000" stroke="none" 
	d="
M413.541962,818.951782 
	C414.010742,826.571899 414.018372,834.100403 414.031189,842.064819 
	C393.672943,842.561707 373.309540,842.622620 352.485138,842.604004 
	C352.012878,835.002441 352.001617,827.480469 351.991852,819.491455 
	C372.355865,818.969666 392.718323,818.914917 413.541962,818.951782 
z"/>
<path fill="#A37B50" opacity="1.000000" stroke="none" 
	d="
M409.540161,292.901947 
	C410.010010,300.494843 410.020020,307.989319 410.041229,315.907654 
	C395.148804,316.443787 380.245239,316.574982 365.341461,316.658539 
	C359.873077,316.689178 354.404114,316.607056 348.478333,316.472839 
	C348.013458,308.886292 348.005676,301.403320 348.001648,293.450500 
	C368.363708,292.921570 388.722015,292.862549 409.540161,292.901947 
z"/>
<path fill="#B68C5A" opacity="1.000000" stroke="none" 
	d="
M572.003723,586.084351 
	C572.002747,598.408752 572.001709,610.733154 572.000488,623.525879 
	C559.975342,624.058228 547.950439,624.122314 535.464172,624.097900 
	C535.002075,611.673889 535.001343,599.338379 535.465332,586.462402 
	C547.954590,585.976013 559.979187,586.030212 572.003723,586.084351 
z"/>
<path fill="#CDA066" opacity="1.000000" stroke="none" 
	d="
M724.458435,316.458679 
	C724.003174,308.869446 724.001587,301.403595 724.000000,293.469177 
	C739.694336,292.932861 755.388733,292.865112 771.541626,292.901917 
	C772.006897,300.496002 772.013550,307.985504 772.026733,315.899902 
	C756.326172,316.410522 740.619141,316.496307 724.458435,316.458679 
z"/>
<path fill="#CDA066" opacity="1.000000" stroke="none" 
	d="
M726.469788,842.595337 
	C726.007202,834.993103 726.004150,827.484375 726.001953,819.509827 
	C741.695557,818.982483 757.388428,818.920959 773.541443,818.955811 
	C774.006836,826.572388 774.012085,834.092590 774.019775,842.048218 
	C758.324585,842.552063 742.626953,842.620422 726.469788,842.595337 
z"/>
<path fill="#000000" opacity="1.000000" stroke="none" 
	d="
M572.442017,585.994995 
	C559.979187,586.030212 547.954590,585.976013 535.467041,585.998413 
	C529.888916,586.074951 524.773743,586.074951 519.337891,586.074951 
	C519.337891,553.266541 519.337891,521.102173 519.337891,488.147827 
	C523.908813,488.147827 528.496643,488.147827 533.543213,488.055634 
	C543.626526,488.037903 553.258667,487.899597 562.873474,488.245148 
	C572.971863,488.608002 583.053650,489.434296 593.571228,490.031372 
	C604.407227,493.057037 614.487549,496.712280 621.814697,505.339081 
	C623.308228,507.097473 624.699402,508.942810 626.414795,510.925659 
	C632.987122,524.069580 634.839355,537.553650 631.028137,551.559692 
	C630.035400,555.208191 628.276978,558.648254 626.762573,562.534302 
	C614.844788,580.478455 596.819214,584.665588 577.351562,585.735718 
	C575.862549,585.817566 574.370850,585.850159 572.442017,585.994995 
z"/>
</svg>