<?xml version="1.0" encoding="UTF-8"?>
<svg xmlns="http://www.w3.org/2000/svg" version="1.2" baseProfile="tiny"
     width="512" height="512" viewBox="0 0 512 512">
  <g fill="#BB905D" fill-rule="evenodd">
    <path d="M319,167L295,157L279,155L278,154L174,154L174,366L213,366L213,305L214,304L278,304L279,303L290,302L304,298L317,292L326,286L338,274L347,258L350,248L351,235L352,234L351,215L347,200L338,184L326,172ZM213,188L214,187L272,187L288,191L297,196L307,207L312,222L311,241L305,254L294,264L278,270L273,270L272,271L214,271L213,270Z"/><path d="M26,23L21,29L18,36L18,475L23,485L29,490L36,493L475,493L485,488L490,482L493,475L493,380L473,380L473,470L470,473L41,473L38,470L38,41L41,38L470,38L473,41L473,135L493,135L493,36L489,27L484,22L475,18L36,18Z"/>
  </g>
</svg>
